<svg version="1.0" xmlns="http://www.w3.org/2000/svg" width="800" height="436" viewBox="0 0 600 327">
  <path d="M62.5 1.4c-1.6.7-3.7 2.2-4.6 3.2C56 6.7 1.6 126.9.5 131.2c-.9 3.4.9 8.9 3.8 11.6 1.2 1.1 20.3 10.9 42.4 21.6 34.9 17 40.8 19.6 44.9 19.6 8 0 8.6-1 37-63.5 14-30.8 25.9-57.7 26.5-59.7 1-3.2.9-4.2-1.2-8.3-2.5-5-5.2-6.7-72.6-46.2C71.3.4 67-.7 62.5 1.4" fill="#4f46e5"/>
  <path d="M527 1.8c-4 2.2-25.7 15-56.3 33.1-11.4 6.8-21.8 13.7-23.2 15.3-5 5.9-5 6.1 24.3 70.4 23.8 52.5 27.1 59.1 30.1 61.1 6.4 4.3 7.6 3.9 51.3-17.3 25.7-12.5 41.3-20.6 43-22.4 5.3-5.7 5-7.6-5.5-31.2C570.6 66 546 11.4 544.3 8.1c-3.7-7-11.1-9.7-17.3-6.3M322.8 32.4c-6.6 2.3-11.5 5.9-21.5 15.6-5.4 5.2-24.3 23.4-42.1 40.5-35.2 33.9-36.7 35.7-36.6 45.5.1 6.7 2 10.7 7.5 15.3 7.6 6.5 19.5 7.3 29.6 2 2.9-1.6 14.8-11.1 26.4-21.3 24.8-21.8 28.3-24.1 38-24.8 8.8-.6 13.6 1.1 22.2 8.1 6.7 5.4 81.9 67.3 100.9 83l10.8 8.9 3.2-2.7c11.8-9.9 23.8-21 23.8-22 0-.7-6.9-16.5-15.4-35.1-8.5-18.7-20.2-44.3-25.9-56.9l-10.5-23-5.8-2.4c-3.3-1.3-23.9-9.1-45.8-17.2C342.8 31.5 341.4 31 334.1 31c-4.2.1-9.3.7-11.3 1.4" fill="#10b981"/>
  <path d="M258.5 34c-3.7.7-21.4 7.3-74.9 27.8-17 6.5-18 7-19.8 10.5-1.7 3.3-42 91.3-47.3 103.4l-2.3 5.2 15.6 14 15.7 14.1 2.9-3.3c17.5-19.7 22.7-23.2 34.6-23.2 6.2 0 8.5.5 13.3 2.9 7.4 3.6 13.1 10.6 15.4 18.8 1.6 5.7 1.8 5.9 4.2 5.1 1.4-.4 6.7-.8 11.6-.8 7.8.1 9.7.4 14.3 2.8 7 3.7 12.8 9.7 16 16.6 2.2 4.7 2.7 7 2.7 14.2v8.7l5.4.5c3 .3 8.1 1.9 11.3 3.5s5.8 2.5 5.8 2c0-1.8 4.2-4.8 6.8-4.8 2.4 0 8 4.8 31.7 26.7 15.8 14.8 30.3 27.6 32.3 28.7 8 4.2 18.8.2 23.3-8.6 2.5-4.8 2.3-12.1-.4-16.2-.9-1.4-15.2-14.3-31.7-28.7-27.4-24-30-26.6-30-29.4 0-3.9 2.7-6.5 6.7-6.5 2.5 0 7.7 4.3 34.2 28.7 17.2 15.9 32.9 29.6 34.9 30.5 4.8 2.2 8.7 2.2 13.7-.1 9.8-4.4 13.6-14.8 8.9-24.2-.7-1.4-11.8-11.8-24.6-23-44.7-39-44-38.3-40.3-43.6 2-2.9 4.9-3.4 8.3-1.4 1.6.9 16.8 13.7 33.6 28.6 16.9 14.8 32.5 28 34.8 29.2 10.1 5.6 23.1.1 26.8-11.3 1.4-4.1.7-10.8-1.5-14-.7-1.2-27.5-23.7-59.5-50-38.6-31.8-59.3-48.2-61.5-48.7-4.3-1.1-10.5.6-14.7 4.1-1.8 1.5-12.4 10.7-23.6 20.5-11.2 9.7-22.6 18.9-25.4 20.3-7.9 4-17.5 5.6-25.5 4.4-9-1.5-14.2-3.9-20.3-9.6-7.4-7-10.4-13.8-10.5-24.4 0-7.7.3-9.2 3.3-15.2 3-6.1 6.7-10 40.2-42.4 20.4-19.6 37-36 37-36.4 0-1.2-9.4-4.9-15.1-6-5.9-1.1-10.7-1.1-16.4 0" fill="#4f46e5"/>
  <path d="M174.5 196c-4.5 2.9-27.6 28-29.1 31.7-6.2 14.7 9.7 29.6 24.1 22.7 3.7-1.7 25.9-24.8 29.4-30.4 4.5-7.5 1.6-18.9-6.1-23.4-5.6-3.3-13.8-3.6-18.3-.6m44.5 24.9c-5.8 2-11.6 7.5-29.6 27.9-9.1 10.4-11.1 16.5-8.4 26.2 2.3 8.1 12.8 16 21.5 16 9.1 0 11.2-1.3 24.9-15.3 17-17.4 20.2-21.5 21.5-27.8 3.9-18.1-12.6-33-29.9-27m37.5 43.5c-3.9 1.7-28.5 27.6-30.7 32.4-2.3 4.9-2.2 9.7.2 14.7 3.7 7.7 11.7 11.5 20 9.5 4.4-1.1 6.2-2.4 14.4-10.9 20.8-21.4 23.1-25.1 20.6-33.6-3.3-11-14.4-16.5-24.5-12.1m35.4 7c1.6 4 1.3 13.6-.5 18.8-.8 2.6-3.8 7.2-6.5 10.4-4.2 4.7-4.8 5.9-3.7 6.9 7.5 7.2 22.7 18.6 25.5 19.1 11.4 2.1 22.2-6.2 22.3-17.2 0-7.5-3.4-11.2-36.3-39.3-1.7-1.4-1.7-1.3-.8 1.3" fill="#10b981"/>
</svg>
